<?xml version="1.0" encoding="UTF-8"?>
<svg width="48px" height="58px" viewBox="0 0 48 58" version="1.1" xmlns="http://www.w3.org/2000/svg" xmlns:xlink="http://www.w3.org/1999/xlink">
    <!-- Generator: Sketch 47 (45396) - http://www.bohemiancoding.com/sketch -->
    <title>Apple_Logo</title>
    <desc>Created with Sketch.</desc>
    <defs>
        <polygon id="path-1" points="0.000140151171 57.6459509 47.8123619 57.6459509 47.8123619 0.00010674846 0.000140151171 0.00010674846"></polygon>
    </defs>
    <g id="Version-4" stroke="none" stroke-width="1" fill="none" fill-rule="evenodd">
        <g id="Homepage---Mobile-App-(Minor-Revisions)" transform="translate(-428.000000, -3493.000000)">
            <g id="MOD---CUSTOMERS-(LOGOS)" transform="translate(0.000000, 3116.000000)">
                <g id="US---Customer-Logos" transform="translate(159.000000, 320.000000)">
                    <g id="Row-1" transform="translate(29.000000, 57.000000)">
                        <g id="Apple_Logo" transform="translate(239.961101, 0.000000)">
                            <mask id="mask-2" fill="white">
                                <use xlink:href="#path-1"></use>
                            </mask>
                            <g id="Clip-2"></g>
                            <path d="M35.8578173,1.15334601 C35.8578173,4.03626626 34.8206987,6.72810675 32.7534689,9.21961595 C30.2587781,12.1815301 27.240973,13.8930638 23.9691439,13.6229902 C23.9274489,13.2771252 23.9032728,12.9131129 23.9032728,12.5305975 C23.9032728,9.76296564 25.0896525,6.80105153 27.1961246,4.37928466 C28.2479591,3.15310061 29.5860524,2.13329693 31.2079519,1.32022945 C32.8270483,0.518904294 34.3581998,0.0758981595 35.7982531,0.00010674846 C35.8399481,0.385468712 35.8578173,0.770830675 35.8578173,1.15334601 Z M46.8106314,44.9237755 C45.9522055,46.9377632 44.9357591,48.7916282 43.7588396,50.4960454 C42.1541087,52.8196037 40.8401915,54.4279472 39.8275993,55.3207202 C38.2579062,56.7870883 36.5760921,57.5378859 34.7747992,57.5805853 C33.482255,57.5805853 31.9230732,57.2066098 30.1081155,56.4486957 C28.2872014,55.6943399 26.6134461,55.3207202 25.083696,55.3207202 C23.4786148,55.3207202 21.7579088,55.6943399 19.9166727,56.4486957 C18.0733345,57.2066098 16.587732,57.601935 15.4525076,57.6410761 C13.7254947,57.7158 12.0037376,56.9436528 10.2858346,55.3207202 C9.1891517,54.349665 7.81742211,52.6840331 6.17414963,50.324892 C4.41104789,47.8056282 2.9615344,44.8842785 1.82595954,41.5540822 C0.609447369,37.9566589 0.000140151171,34.4731006 0.000140151171,31.1005607 C0.000140151171,27.2373337 0.822126771,23.9053583 2.46855266,21.1131742 C3.76214797,18.870389 5.48390511,17.101211 7.63802861,15.802438 C9.7925025,14.503665 12.1204135,13.8418245 14.6277179,13.799481 C15.9994475,13.799481 17.7982878,14.230389 20.0333486,15.0772601 C22.2628033,15.9269779 23.6940972,16.3578859 24.3212737,16.3578859 C24.7907801,16.3578859 26.3804448,15.8540331 29.0762525,14.8495301 C31.625252,13.9179718 33.7765725,13.532254 35.5389734,13.6841926 C40.3146246,14.0756037 43.9024946,15.9874687 46.2885683,19.4318859 C42.0174613,22.0600331 39.9046824,25.7410761 39.9467278,30.4632724 C39.984919,34.1414687 41.2988362,37.2023031 43.8811215,39.6326098 C45.0513838,40.7605853 46.3586439,41.6323644 47.8123619,42.2515055 C47.4973721,43.1798613 47.1645131,44.0694319 46.8106314,44.9237755 L46.8106314,44.9237755 Z" id="Fill-1" fill="#000000" mask="url(#mask-2)"></path>
                        </g>
                    </g>
                </g>
            </g>
        </g>
    </g>
</svg>