<?xml version="1.0" encoding="UTF-8"?>
<svg width="93px" height="45px" viewBox="0 0 93 45" version="1.1" xmlns="http://www.w3.org/2000/svg" xmlns:xlink="http://www.w3.org/1999/xlink">
    <!-- Generator: Sketch 47 (45396) - http://www.bohemiancoding.com/sketch -->
    <title>EA_Logo</title>
    <desc>Created with Sketch.</desc>
    <defs>
        <polygon id="path-1" points="2.35424379 2.1954686 2.35424379 0.017546124 0.00802254371 0.017546124 0.00802254371 2.1954686 2.35424379 2.1954686"></polygon>
    </defs>
    <g id="Version-4" stroke="none" stroke-width="1" fill="none" fill-rule="evenodd">
        <g id="Homepage---Mobile-App-(Minor-Revisions)" transform="translate(-575.000000, -3502.000000)">
            <g id="MOD---CUSTOMERS-(LOGOS)" transform="translate(0.000000, 3116.000000)">
                <g id="US---Customer-Logos" transform="translate(159.000000, 320.000000)">
                    <g id="Row-1" transform="translate(29.000000, 57.000000)">
                        <g id="EA_Logo" transform="translate(387.038544, 9.666667)">
                            <path d="M38.8175723,34.1592798 C38.4004223,34.1592798 18.066223,34.2040163 16.658439,34.2092992 C17.3362939,33.1296674 21.1945699,27.0093186 21.4030893,26.6642411 L35.7934851,26.6642411 L41.5809547,17.4180744 L8.49869992,17.4760744 L2.7372674,26.6907682 L3.1023432,26.6907682 C3.49334484,26.6907682 4.17108843,26.6907682 4.92716588,26.6853729 C6.85624824,26.6826752 9.46329673,26.6773922 10.3235226,26.6773922 L10.4539307,26.6773922 C9.90637258,27.5571713 3.98860616,37.0139814 1.30344636,41.314524 C0.756110825,42.1993612 0.338960812,42.8762527 0.13044144,43.2106519 C0.052107589,43.342276 3.33809031e-05,43.4187101 3.33809031e-05,43.4187101 L44.0836323,43.4134271 C44.8656355,42.167776 59.5167362,18.5452527 60.1945911,17.4628109 C60.7942234,18.387214 64.730722,24.6944891 65.3824284,25.7504039 L60.7942234,25.7504039 L55.0589392,34.9599271 L55.1370505,34.9599271 L71.1698981,34.9599271 C71.4044545,35.3311946 76.149216,42.8999698 76.4099209,43.2976519 L87.3330424,43.2976519 L60.168554,8.99224806e-05 C59.0995862,1.69074496 39.0782772,33.7694659 38.8175723,34.1592798 M53.9639344,0.676868992 L18.9264488,0.734756589 L13.217313,9.94146977 L48.2026131,9.92843101 L53.9639344,0.676868992" id="Fill-1" fill="#000000"></path>
                            <g id="Group-5" transform="translate(89.905898, 40.833461)">
                                <mask id="mask-2" fill="white">
                                    <use xlink:href="#path-1"></use>
                                </mask>
                                <g id="Clip-4"></g>
                                <polygon id="Fill-3" fill="#000000" mask="url(#mask-2)" points="1.72858553 0.017546124 1.18113873 1.57399186 0.633691928 0.017546124 0.00802254371 0.017546124 0.00802254371 2.1954686 0.399024183 2.1954686 0.399024183 0.433662403 0.998545194 2.1954686 1.363621 2.1954686 1.93710491 0.433662403 1.93710491 2.1954686 2.35425492 2.1954686 2.35425492 0.017546124"></polygon>
                            </g>
                            <polygon id="Fill-6" fill="#000000" points="87.6719142 41.2118101 88.3758062 41.2118101 88.3758062 43.0289186 88.8189933 43.0289186 88.8189933 41.2118101 89.5228852 41.2118101 89.5228852 40.8509961 87.6719142 40.8509961"></polygon>
                        </g>
                    </g>
                </g>
            </g>
        </g>
    </g>
</svg>