<?xml version="1.0" encoding="UTF-8"?>
<svg width="90px" height="90px" viewBox="0 0 90 90" version="1.1" xmlns="http://www.w3.org/2000/svg" xmlns:xlink="http://www.w3.org/1999/xlink">
    <!-- Generator: Sketch 55.2 (78181) - https://sketchapp.com -->
    <title>icon_partnerships</title>
    <desc>Created with Sketch.</desc>
    <g id="icon_partnerships" stroke="none" stroke-width="1" fill="none" fill-rule="evenodd" stroke-linecap="round" stroke-linejoin="round">
        <g id="business-deal-handshake-1" transform="translate(4.000000, 20.000000)" stroke="#FD1F6D" stroke-width="3">
            <path d="M50.3541667,11.6071429 L37.7245833,15.7928571 C35.6357955,16.472577 33.3799814,15.4175039 32.5453639,13.3704701 C31.7107464,11.3234363 32.5782418,8.97343405 34.5370833,7.975 L46.7735417,1.80714286 C48.8829085,0.75137259 51.3294486,0.614526681 53.5416667,1.42857143 L71.6041667,8.03571429 L71.6041667,33.0357143 L50.3329167,37.1107143" id="Path"></path>
            <path d="M11.3958333,33.0357143 L20.25,33.0357143 L32.9645833,47.4071429 C34.2892701,48.9587635 36.4314535,49.5154304 38.3348014,48.8026455 C40.2381494,48.0898607 41.5007491,46.2581364 41.5,44.2107143 L41.5,41.9642857 L42.1339583,42.2214286 C43.9810367,42.9654182 46.0737608,42.7373574 47.7205682,41.6126113 C49.3673757,40.4878652 50.3539122,38.6128346 50.3541667,36.6071429 L52.125,36.6071429 C54.1372266,36.6071429 55.9767494,35.4607016 56.8766445,33.6457871 C57.7765395,31.8308727 57.5823359,29.6590231 56.375,28.0357143 L45.0416667,13.3928571" id="Path"></path>
            <path d="M36.3716667,7.03214286 L35.0754167,5.96071429 C32.9616833,4.38148787 30.1879609,4.01800896 27.7441667,5 L11.3958333,11.6071429" id="Path"></path>
            <path d="M0.770833333,4.46428571 L7.85416667,4.46428571 C9.81017516,4.46428571 11.3958333,6.06326875 11.3958333,8.03571429 L11.3958333,33.0357143 C11.3958333,35.0081598 9.81017516,36.6071429 7.85416667,36.6071429 L0.770833333,36.6071429" id="Path"></path>
            <path d="M82.2291667,36.6071429 L75.1458333,36.6071429 C73.1898248,36.6071429 71.6041667,35.0081598 71.6041667,33.0357143 L71.6041667,8.03571429 C71.6041667,6.06326875 73.1898248,4.46428571 75.1458333,4.46428571 L82.2291667,4.46428571" id="Path"></path>
            <path d="M41.5,41.9642857 L37.9583333,38.3928571" id="Path"></path>
            <path d="M45.0416667,31.25 L50.3541667,36.6071429" id="Path"></path>
        </g>
    </g>
</svg>