<?xml version="1.0" encoding="UTF-8"?>
<svg width="90px" height="90px" viewBox="0 0 90 90" version="1.1" xmlns="http://www.w3.org/2000/svg" xmlns:xlink="http://www.w3.org/1999/xlink">
    <!-- Generator: Sketch 55.2 (78181) - https://sketchapp.com -->
    <title>icon_contact</title>
    <desc>Created with Sketch.</desc>
    <g id="icon_contact" stroke="none" stroke-width="1" fill="none" fill-rule="evenodd" stroke-linecap="round" stroke-linejoin="round">
        <g id="messages-people-user-question" transform="translate(5.000000, 3.000000)" stroke="#FD1F6D" stroke-width="3">
            <path d="M0.65625,59.09375 C0.65625,62.0277627 3.03473727,64.40625 5.96875,64.40625 L16.59375,64.40625 L16.59375,83 L35.1875,64.40625 L75.03125,64.40625 C77.9652627,64.40625 80.34375,62.0277627 80.34375,59.09375 L80.34375,5.96875 C80.34375,3.03473727 77.9652627,0.65625 75.03125,0.65625 L5.96875,0.65625 C3.03473727,0.65625 0.65625,3.03473727 0.65625,5.96875 L0.65625,59.09375 Z" id="Path"></path>
            <path d="M40.15625,45.46875 C40.8897532,45.46875 41.484375,46.0633718 41.484375,46.796875 C41.484375,47.5303782 40.8897532,48.125 40.15625,48.125 C39.4227468,48.125 38.828125,47.5303782 38.828125,46.796875 C38.828125,46.0633718 39.4227468,45.46875 40.15625,45.46875" id="Path"></path>
            <path d="M32.1875,21.5625 C32.1875,17.1614809 35.7552309,13.59375 40.15625,13.59375 C44.5572691,13.59375 48.125,17.1614809 48.125,21.5625 C48.125,25.9635191 44.5572691,29.53125 40.15625,29.53125 L40.15625,34.84375" id="Path"></path>
        </g>
    </g>
</svg>