<?xml version="1.0" encoding="UTF-8"?>
<svg width="90px" height="90px" viewBox="0 0 90 90" version="1.1" xmlns="http://www.w3.org/2000/svg" xmlns:xlink="http://www.w3.org/1999/xlink">
    <!-- Generator: Sketch 55.2 (78181) - https://sketchapp.com -->
    <title>icon_leadership</title>
    <desc>Created with Sketch.</desc>
    <g id="icon_leadership" stroke="none" stroke-width="1" fill="none" fill-rule="evenodd" stroke-linecap="round" stroke-linejoin="round">
        <g id="business-climb-top" transform="translate(5.000000, 4.000000)" stroke="#FD1F6D" stroke-width="3">
            <path d="M13.0520833,82.2291667 L43.15625,34.4166667 C43.9999159,33.3136997 45.3092812,32.66675 46.6979167,32.66675 C48.0865521,32.66675 49.3959174,33.3136997 50.2395833,34.4166667 L80.34375,82.2291667 L13.0520833,82.2291667 Z" id="Path"></path>
            <path d="M13.0520833,82.2291667 L0.65625,82.2291667 L13.0520833,62.75 C13.9185417,61.6722692 15.2116903,61.0256949 16.59375,60.9791667 C17.9758097,61.0256949 19.2689583,61.6722692 20.1354167,62.75 L22.4375,67.3541667" id="Path"></path>
            <path d="M28.8302083,57.1683333 L37.1283333,64.1879167 C38.5350988,65.3769395 40.6184338,65.2891715 41.9202083,63.9860417 L44.1939583,61.7122917 C45.5769786,60.329689 47.8188547,60.329689 49.201875,61.7122917 L51.475625,63.9860417 C52.7773995,65.2891715 54.8607346,65.3769395 56.2675,64.1879167 L64.4133333,57.3064583" id="Path"></path>
            <path d="M46.6979167,32.6458333 L46.6979167,0.770833333" id="Path"></path>
            <path d="M46.6979167,0.770833333 L71.3479167,0.770833333 C72.0278944,0.771801304 72.6472638,1.16204129 72.9416588,1.77498684 C73.2360538,2.38793239 73.1534739,3.11531551 72.7291667,3.64666667 L68.8333333,8.52 C68.3172519,9.16627978 68.3172519,10.0837202 68.8333333,10.73 L72.7291667,15.6033333 C73.1534739,16.1346845 73.2360538,16.8620676 72.9416588,17.4750132 C72.6472638,18.0879587 72.0278944,18.4781987 71.3479167,18.4791667 L46.6979167,18.4791667" id="Path"></path>
        </g>
    </g>
</svg>