<?xml version="1.0" encoding="UTF-8"?>
<svg width="147px" height="20px" viewBox="0 0 147 20" version="1.1" xmlns="http://www.w3.org/2000/svg" xmlns:xlink="http://www.w3.org/1999/xlink">
    <!-- Generator: Sketch 47 (45396) - http://www.bohemiancoding.com/sketch -->
    <title>Tencent_Logo</title>
    <desc>Created with Sketch.</desc>
    <defs></defs>
    <g id="Version-4" stroke="none" stroke-width="1" fill="none" fill-rule="evenodd">
        <g id="Homepage---Mobile-App-(Minor-Revisions)" transform="translate(-188.000000, -3514.000000)" fill-rule="nonzero" fill="#006CB6">
            <g id="MOD---CUSTOMERS-(LOGOS)" transform="translate(0.000000, 3116.000000)">
                <g id="US---Customer-Logos" transform="translate(159.000000, 320.000000)">
                    <g id="Row-1" transform="translate(29.000000, 57.000000)">
                        <g id="Tencent_Logo" transform="translate(0.000000, 21.266667)">
                            <path d="M0.662043728,0 L0,2.61805556 L6.13493855,2.61805556 L3.88398987,11.7476852 L2.22888055,18.4830247 L6.24527917,18.4830247 L7.90038849,11.7476852 L10.1513372,2.61805556 L16.2642076,2.61805556 L16.9041832,0 L0.662043728,0 Z M123.272542,0.201388889 C122.945934,1.56188272 122.645807,2.62342593 122.345681,3.53549383 L120.845049,3.53549383 L121.330547,3.22222222 C122.167371,2.67175926 122.579603,2.38891975 122.58843,2.34953704 C122.141772,1.32648148 121.763965,0.620277778 121.41882,0.268518519 C121.409074,0.204933333 120.771782,0.599691358 119.543029,1.40972222 L119.123735,1.67824074 C119.132562,1.6979321 119.182913,1.77401235 119.278212,1.90200617 C119.710747,2.47216049 120.076195,3.00919753 120.35955,3.53549383 L119.123735,3.53549383 L118.726509,5.41512346 L121.507092,5.41512346 L121.308479,5.79552469 L121.109866,6.17592593 L118.108601,6.17592593 L117.733443,8.05555556 L119.807847,8.05555556 C118.922474,9.15111111 117.869383,10.0309568 116.652105,10.6959877 L118.5941,1.29783951 L113.231546,1.29783951 L111.223346,11.0092593 C111.169465,11.2634568 111.108592,11.5051235 111.046801,11.7476852 C110.57984,13.6264198 109.885135,15.311821 108.95033,16.804784 C109.517039,17.312284 109.978704,17.8564815 110.362689,18.4382716 C111.486398,16.8128395 112.369123,14.731821 113.032933,12.1728395 L114.202543,12.1728395 L113.540499,15.3503086 C113.488383,15.7853086 113.052352,15.9813272 112.260548,15.9097222 C112.425618,16.6875309 112.496236,17.4662346 112.437093,18.2816358 C114.348193,18.2691049 115.313011,17.8323148 115.350086,16.9390432 L116.431424,11.7476852 L116.497593,11.3896605 C116.616761,11.5104938 116.727984,11.629537 116.828615,11.7476852 C117.08637,12.0555864 117.286749,12.3581173 117.424454,12.6651235 C117.717519,12.5183333 118.065312,12.2927778 118.461656,11.9490741 L117.755476,14.2762346 L124.1773,14.2762346 L124.066959,14.8804012 C123.812735,16.1370679 123.455231,16.7475 123.007689,16.6705247 L123.360779,14.8804012 L116.475525,14.8804012 L116.078298,16.7376543 L121.683602,16.7376543 C122.004031,17.4384877 122.140853,18.1563272 122.080828,18.908179 C123.869229,18.8491049 124.964691,18.5698457 125.391047,18.0578704 C125.524338,17.9083951 125.664692,17.6488272 125.810341,17.2075617 C126.102523,16.3205556 126.44502,15.0236111 126.869611,13.3140432 L127.112361,12.3294753 L124.729003,12.3294753 L124.861412,11.7476852 L125.037957,10.8526235 C125.461665,11.2285494 125.837706,11.5212346 126.163431,11.7476852 C126.404415,11.9150617 126.617152,12.0430556 126.803407,12.1280864 C126.905803,11.9983025 127.010847,11.8703086 127.112361,11.7476852 C127.726737,10.991358 128.310218,10.3612346 128.855742,9.84567901 C127.416901,9.43037037 126.362927,8.83425926 125.700001,8.05555556 L128.855742,8.05555556 L129.2309,6.17592593 L123.559393,6.17592593 C123.711221,5.95037037 123.852457,5.70780864 123.956619,5.41512346 L128.635061,5.41512346 L129.010219,3.53549383 L127.333042,3.53549383 C128.065703,2.80959877 128.710093,2.21259259 129.297105,1.74537037 L127.333077,0.514660494 C126.703694,1.32916667 126.024879,2.12219136 125.280742,2.88657407 L126.47242,3.625 L124.773175,3.625 L125.015924,2.84182099 L125.324878,2.05864198 C125.582633,1.39898148 125.794487,0.897746914 125.942785,0.581790123 C125.956909,0.452006173 125.873085,0.386666667 125.611763,0.358024691 C125.116555,0.279259259 124.338874,0.227345679 123.272542,0.201388889 Z M135.145193,0.358024691 C134.546706,0.55941358 133.616313,0.927283951 132.320473,1.47685185 C132.728292,2.65564815 133.022239,3.83175926 133.225266,5.01234568 C133.683401,4.83601852 134.677349,4.48962963 136.182395,3.9382716 C135.554777,1.64691358 135.195508,0.448425926 135.145193,0.358024691 Z M137.329937,1.36496914 L136.866507,3.53549383 L138.631957,3.53549383 L137.793368,7.58564815 L135.586556,7.58564815 L135.123125,9.75617284 L137.352005,9.75617284 L136.932711,11.7476852 L135.586556,18.2145062 L138.058185,18.2145062 L139.382273,11.7476852 L139.801567,9.75617284 L141.567017,9.75617284 L141.213927,11.3896605 C141.188364,11.5104938 141.169791,11.628642 141.147758,11.7476852 C140.695803,14.1473457 140.92796,16.0242901 141.83187,17.3641975 C142.38269,18.1581173 143.047382,18.4937654 143.840069,18.371142 C144.661004,18.4141049 145.48282,17.0706173 146.289631,14.3433642 C145.555204,14.0050309 144.879037,13.7069753 144.281432,13.4483025 C143.880675,14.6978086 143.631746,15.1032716 143.531116,14.6566358 C143.373108,14.0193519 143.405769,13.05 143.619388,11.7476852 C143.688241,11.3270062 143.776513,10.875 143.884206,10.382716 L145.759996,1.36496914 L137.329973,1.36496914 L137.329937,1.36496914 Z M100.674783,1.58873457 L99.8361942,5.03472222 L96.6142481,5.03472222 L95.9963406,7.58564815 L107.780719,7.58564815 L100.674783,1.58873457 Z M114.886655,3.22222222 L116.056266,3.22222222 L115.504562,5.88503086 L114.35702,5.88503086 L114.886655,3.22222222 Z M141.081518,3.53549383 L142.935241,3.53549383 L142.096652,7.58564815 L140.24293,7.58564815 L141.081518,3.53549383 Z M21.5164212,4.27391975 C19.0677421,4.27391975 16.9439058,4.92283951 15.1387333,6.22067901 C13.3432707,7.53731481 12.177191,9.26209877 11.6519696,11.3896605 C11.6211096,11.5140741 11.5884134,11.6259568 11.5636971,11.7476852 C11.1602918,13.7230864 11.5177954,15.3341975 12.6450352,16.558642 C13.8464239,17.8475309 15.7001463,18.4830247 18.2062025,18.4830247 C22.4777087,18.4830247 25.7517356,15.8408025 26.0845229,15.5516975 L24.2308005,15.1265432 C23.7947343,15.2285802 21.4202041,15.9258333 19.0447912,15.7083333 C16.04794,15.4353395 15.3682417,13.210216 15.5359595,12.1057099 L27.5630872,12.1057099 L27.6734278,11.7476852 L27.7617003,11.367284 C28.3072244,9.14932099 28.0185733,7.40484568 26.9010435,6.15354938 C25.7746864,4.89151235 23.9898165,4.27391975 21.5164212,4.27391975 Z M57.1564419,4.27391975 C54.5797677,4.27391975 52.2493738,4.95148148 50.1387784,6.33256173 C48.024652,7.71453704 46.7279291,9.42679012 46.2327204,11.4344136 C46.2053912,11.5445062 46.1656333,11.6393827 46.1444479,11.7476852 C45.7745861,13.6112037 46.2644985,15.1874074 47.6009441,16.4691358 C49.0186004,17.8135185 51.0250342,18.4830247 53.625542,18.4830247 C55.2012061,18.4830247 56.8545499,18.1518519 58.5908699,17.4984568 L59.6060037,13.4035494 C58.4513994,14.3048765 57.4830501,14.9036728 56.7150794,15.2160494 C55.9223924,15.5382716 55.0652664,15.7083333 54.1331088,15.7083333 C52.672199,15.7083333 51.5670274,15.3109259 50.8228902,14.5 C50.1643774,13.7696296 49.9286898,12.8423457 50.1167102,11.7476852 C50.1378956,11.6268519 50.1741227,11.5140741 50.2049827,11.3896605 C50.5095228,10.1562654 51.2421846,9.11978395 52.4117952,8.30169753 C53.5787576,7.48361111 54.9001968,7.07098765 56.3619894,7.07098765 C57.2932642,7.07098765 58.0471114,7.2312037 58.6570743,7.5632716 C59.2785127,7.88459877 59.9299637,8.48787037 60.5990693,9.35339506 L61.614203,5.21373457 C60.29806,4.5791358 58.8133166,4.27391975 57.1564419,4.27391975 Z M71.6993358,4.27391975 C69.249774,4.27391975 67.1259377,4.92283951 65.3216479,6.22067901 C63.5253025,7.53731481 62.3592228,9.26209877 61.8348842,11.3896605 C61.8040242,11.5140741 61.7721754,11.6259568 61.7466117,11.7476852 C61.3423237,13.7230864 61.6989446,15.3341975 62.8279498,16.558642 C64.027573,17.8475309 65.8839437,18.4830247 68.3891171,18.4830247 C72.6588578,18.4830247 75.9355329,15.8408025 76.2674375,15.5516975 L74.4137151,15.1265432 C73.9776489,15.2285802 71.6031187,15.9258333 69.2277058,15.7083333 C66.2317373,15.4353395 65.5493909,13.210216 65.7188741,12.1057099 L77.7460018,12.1057099 L77.8563424,11.7476852 L77.9446149,11.367284 C78.4919044,9.14932099 78.2217906,7.40484568 77.1060262,6.15354938 C75.9796692,4.89151235 74.1736139,4.27391975 71.6993358,4.27391975 Z M40.4067355,4.65432099 C38.7048418,4.65432099 37.0409052,5.18777778 35.4193395,6.2654321 L31.8222352,5.03472222 L30.1671259,11.7476852 L28.5120166,18.4830247 L32.4180746,18.4830247 L34.0069795,11.9938272 C34.0273175,11.9105864 34.0528812,11.8228704 34.0731486,11.7476852 C34.4792021,10.2010185 35.0238434,9.09830247 35.6841216,8.45833333 C36.3920671,7.77808642 37.3754227,7.45138889 38.6633184,7.45138889 C39.8479353,7.45138889 40.6150233,7.69574074 40.9363352,8.21219136 C41.270888,8.71700617 41.2638262,9.63891975 40.9363352,10.9645062 L40.7597902,11.7476852 L39.0826128,18.4830247 L42.9886708,18.4830247 L44.6437801,11.7476852 L45.0189382,10.2260802 C45.4876652,8.32944444 45.3587873,6.9716358 44.621712,6.13117284 C43.7716478,5.14660494 42.3628188,4.65432099 40.4067002,4.65432099 L40.4067355,4.65432099 Z M90.2586283,4.65432099 C88.5558518,4.65432099 86.8945634,5.18777778 85.2712322,6.2654321 L81.6741279,5.03472222 L80.0190186,11.7476852 L78.3639093,18.4830247 L82.2699673,18.4830247 L83.8588722,11.9938272 C83.8800576,11.9105864 83.9039265,11.8228704 83.9250413,11.7476852 C84.3328602,10.2010185 84.8739706,9.09830247 85.5360144,8.45833333 C86.2448425,7.77808642 87.22555,7.45138889 88.5152112,7.45138889 C89.6989453,7.45138889 90.4660333,7.69574074 90.788228,8.21219136 C91.121898,8.71700617 91.1157189,9.63891975 90.788228,10.9645062 L90.5896148,11.7476852 L88.9345055,18.4830247 L92.8405635,18.4830247 L94.4956728,11.7476852 L94.8708309,10.2260802 C95.3395579,8.32944444 95.2097973,6.9716358 94.4736047,6.13117284 C93.6244233,5.14660494 92.2129461,4.65432099 90.258593,4.65432099 L90.2586283,4.65432099 Z M129.915048,6.06404321 L129.451617,8.25694444 L131.636361,8.25694444 L130.908113,11.7476852 L130.444683,14.0748457 C130.344052,14.5617593 129.960067,15.0692593 129.29714,15.6188272 C129.102058,15.7817284 128.982007,15.8864506 128.966118,15.9320988 C129.208868,16.7027469 129.641403,17.4545988 130.246069,18.1473765 C130.292889,18.1599074 130.551492,17.9289815 130.996386,17.4760802 C131.660195,16.762716 133.344434,15.1900926 136.072054,12.7546296 C136.063227,12.7232667 135.913164,12.3966049 135.630692,11.7924383 L135.608659,11.7476852 L135.211433,10.8526235 L134.77007,11.2330247 C134.558216,11.4218827 134.353424,11.5955247 134.174231,11.7476852 C133.697559,12.1665741 133.335642,12.4735802 133.092893,12.6651235 L133.291506,11.7476852 L134.461117,6.06404321 L129.915083,6.06404321 L129.915048,6.06404321 Z M20.8985137,7.07098765 C22.9693865,7.07098765 24.0763236,7.89623457 24.2087323,9.55478395 L16.4186845,9.55478395 C16.6393657,9.16811728 16.8953559,8.82978395 17.2131369,8.52546296 C17.5282697,8.2229321 17.8840079,7.95351852 18.2724069,7.74228395 C18.6713986,7.52030864 19.0889275,7.36098765 19.53029,7.25 C19.9734179,7.13006173 20.4271386,7.07098765 20.8985137,7.07098765 Z M71.0814283,7.07098765 C73.1523011,7.07098765 74.2610036,7.89623457 74.3916469,9.55478395 L66.6015991,9.55478395 C66.8240458,9.16811728 67.0809187,8.82978395 67.3960515,8.52546296 C67.7129498,8.2229321 68.0713361,7.95351852 68.4553215,7.74228395 C68.8578441,7.52030864 69.2718421,7.36098765 69.7132046,7.25 C70.158098,7.13006173 70.6091704,7.07098765 71.0814283,7.07098765 Z M113.959794,7.74228395 L115.107336,7.74228395 L114.599769,10.2260802 L113.452227,10.2260802 L113.959794,7.74228395 Z M122.411885,8.05555556 L123.095997,8.05555556 C123.186918,8.32138889 123.313148,8.58632716 123.471155,8.83873457 L121.793978,8.83873457 L122.102932,8.43595679 L122.411885,8.05555556 Z M99.0638099,8.16743827 L98.1810849,11.7476852 L96.5039075,18.4830247 L100.387897,18.4830247 L102.065075,11.7476852 L102.9478,8.16743827 L99.0638099,8.16743827 Z M120.028528,10.6064815 L122.787043,10.6064815 L122.566362,11.7476852 L122.411885,12.3966049 L120.514027,12.3966049 C120.584645,12.1567284 120.648201,11.9419136 120.71264,11.7476852 C120.785906,11.5239198 120.845049,11.3332716 120.911253,11.1658951 C120.818567,11.1121914 120.762072,11.0763889 120.71264,11.0763889 L119.565097,11.0763889 L120.028528,10.6064815 Z" id="path22339"></path>
                        </g>
                    </g>
                </g>
            </g>
        </g>
    </g>
</svg>